<svg xmlns="http://www.w3.org/2000/svg" viewBox="0 0 72.46 10.85"><defs><style>.cls-1{fill:#fff;stroke:#fff;stroke-miterlimit:10;stroke-width:0.24px;}</style></defs><g id="Camada_2" data-name="Camada 2"><g id="Camada_1-2" data-name="Camada 1"><path id="CINEPLEX_4" data-name="CINEPLEX #4" class="cls-1" d="M5.47.44C.45,1,4,17.51,8.58,7.39h.27L8.74,10.7H8.58C4.65,10.58.24,11.83.13,5.62-.08,1.56,3.37-.66,7,.37,7.92.53,8.1.86,8.45.3h.16l.12,3.23H8.46C7.69,2,7.09.54,5.47.44ZM10.21.3h4.54V.59h-.82v9.85h.82v.28H10.21v-.28H11V.59h-.82ZM23.9.59V10.72H21.82L16.71,1.09v9.35h.82v.28h-2v-.28h.82V.59h-.82V.3H19.6l3.9,7.47V.59h-.82V.3h2V.59ZM25.51.3h7.74l.15,3h-.27C32.31,1.19,31.41.51,29.29.63v4.6a2.08,2.08,0,0,0,2.35-2h.22V7.69h-.25c-.32-1.43-.91-2.19-2.32-2.08v4.78A3.84,3.84,0,0,0,33.5,7.47h.3l-.12,3.25H25.51v-.33h.88V.63h-.88Zm9.27,0C36.66.38,41.09,0,42.5,1c3,2.62-.21,6.16-3.85,5.5v4h1.86v.28H34.78v-.28h1V.59h-1Zm3.87.29V6.17c2,.23,1.91-1.7,1.89-3.31S40.21.45,38.65.59ZM44.23.3h5.36V.63H48v9.76c2.25.2,3.08-1.14,4.07-3.16h.32l-.28,3.49H44.23v-.33h.88V.63h-.88Zm8.88,0h7.74l.15,3h-.27C59.91,1.19,59,.51,56.89.63v4.6a2.08,2.08,0,0,0,2.35-2h.22V7.69h-.25c-.32-1.43-.91-2.19-2.32-2.08v4.78A3.84,3.84,0,0,0,61.1,7.47h.3l-.12,3.25H53.11v-.33H54V.63h-.88ZM72.34,10.72H67.25v-.28h1L66,6.51l-2.37,3.93h1.58v.28H62.14v-.28h1l2.6-4.38L62.63.6h-.8V.3h5V.6h-1l2,3.6L70.08.6H68.54V.3h3V.6h-1l-2.52,4,3.38,5.82h.87Z"/></g></g></svg>