<svg id="Camada_1" data-name="Camada 1" xmlns="http://www.w3.org/2000/svg" viewBox="0 0 25.13 48.8"><path d="M4.34,49.36c-.55-.66-1.45-1.19-1.8-2a3.53,3.53,0,0,1-1.21-1.09,8.32,8.32,0,0,1-.26-3.84,19.16,19.16,0,0,1,0-3.71c.1-.61-.22-1.37,0-1.92a8.36,8.36,0,0,1,0-2.12,5.05,5.05,0,0,1,0-1.6,1.38,1.38,0,0,1,0-1c0-.47-.22-1.08,0-1.53-.18-3.31.07-7-.13-10.31a3.72,3.72,0,0,0,0-2,9.33,9.33,0,0,0,0-2.69,2.5,2.5,0,0,0,0-1.41A23.77,23.77,0,0,0,1,9.94a8.24,8.24,0,0,1,.06-2C1.12,7.14.9,5.74,1.33,5c.3-.36.85-.67,1.15-1a1.74,1.74,0,0,1,.77-.7c.41-.67,1.07-1,1.47-1.6a6.13,6.13,0,0,1,2.37-.32,1.63,1.63,0,0,0,1.09,0,1.32,1.32,0,0,0,1,0,7.71,7.71,0,0,0,1.92.06c1.34.06,2.74.07,4.09,0,.65.16,1.41-.25,2,.07a13.94,13.94,0,0,1,3.65,0c.9,0,1.36.83,1.92,1.41a1.45,1.45,0,0,0,.7.57,3.09,3.09,0,0,0,1.15,1.15c.92,1,.66,2.55.58,3.78a13.68,13.68,0,0,1,0,2.56,6,6,0,0,1,0,2.11c.28.78.5,1.8.77,2.56s-.4,1.11-1.15,1a1.65,1.65,0,0,1-1-.07c-.87.09-1.75,0-2.56.13a19.55,19.55,0,0,0-3.59-.06,1.26,1.26,0,0,1-1.47-.52,6.08,6.08,0,0,0,1-3.2A5.75,5.75,0,0,0,16.88,10c-1.11-1-3-.31-4.29-.64-.92.26-2-.11-2.94.32a2.69,2.69,0,0,0-.58,2.69A22.43,22.43,0,0,0,8.94,15c.18,2.37,0,4.74.07,7.11,0,1,.07,2.41.06,3.45a8.8,8.8,0,0,0,0,1.54,6.08,6.08,0,0,0-.13,1.6,36.13,36.13,0,0,1,0,5,1.81,1.81,0,0,1,0,1.15c0,.44.2,1,.13,1.47a3.46,3.46,0,0,0,0,1.6A11.37,11.37,0,0,0,9,39.82a2,2,0,0,0,2.56,2c.47-.15,1.07.14,1.53,0,.85-.14,1.82.24,2.63-.06,1-.05,1.39-.53,1.41-1.54a7.1,7.1,0,0,0-.32-3.45c-.15-.93-1.26-2,.38-2.18a21.6,21.6,0,0,0,3,0,7.91,7.91,0,0,0,2.49,0,11.21,11.21,0,0,1,1.54.06c.74,0,2.36-.23,1.66,1.09a26.38,26.38,0,0,0-.7,3c.26,1.14-.08,2.54,0,3.71.16,1.36.28,3.2-.58,4.35-.35.31-.92.62-1.08,1.09a3.28,3.28,0,0,0-.84.64c-.58.49-1,1.32-1.85,1.41a1.68,1.68,0,0,0-1,.19,18.18,18.18,0,0,1-2.11-.19.92.92,0,0,1-1,0l-.57.19c-.24-.24-.75-.15-1-.07-.89-.33-2,0-2.94.07a13.55,13.55,0,0,1-1.67-.19.92.92,0,0,1-1,0c-.95-.08-2.61.12-3.52,0C5.49,50.26,4.84,49.59,4.34,49.36Z" transform="translate(-0.94 -1.35)"/></svg>