<svg id="Camada_1" data-name="Camada 1" xmlns="http://www.w3.org/2000/svg" viewBox="0 0 225.72 48.86"><defs><style>.cls-1{fill:#fff;}</style></defs><path class="cls-1" d="M8.34,52.36c-.55-.66-1.45-1.19-1.8-2a3.53,3.53,0,0,1-1.21-1.09,8.32,8.32,0,0,1-.26-3.84,19.16,19.16,0,0,1,0-3.71c.1-.61-.22-1.37,0-1.92a8.36,8.36,0,0,1,0-2.12,5.05,5.05,0,0,1,0-1.6,1.38,1.38,0,0,1,0-1c0-.47-.22-1.08,0-1.53-.18-3.31.07-7-.13-10.31a3.72,3.72,0,0,0,0-2,9.33,9.33,0,0,0,0-2.69,2.5,2.5,0,0,0,0-1.41A23.77,23.77,0,0,0,5,12.94a8.24,8.24,0,0,1,.06-2c0-.81-.17-2.21.26-2.94.3-.36.85-.67,1.15-1a1.74,1.74,0,0,1,.77-.7c.41-.67,1.07-1,1.47-1.6a6.13,6.13,0,0,1,2.37-.32,1.63,1.63,0,0,0,1.09,0,1.32,1.32,0,0,0,1,0,7.71,7.71,0,0,0,1.92.06c1.34.06,2.74.07,4.09,0,.65.16,1.41-.25,2.05.07a13.94,13.94,0,0,1,3.65,0c.9,0,1.36.83,1.92,1.41a1.45,1.45,0,0,0,.7.57,3.09,3.09,0,0,0,1.15,1.15c.92,1,.66,2.55.58,3.78a13.68,13.68,0,0,1,0,2.56,6,6,0,0,1,0,2.11c.28.78.5,1.8.77,2.56.38.91-.4,1.11-1.15,1a1.65,1.65,0,0,1-1-.07c-.87.09-1.75,0-2.56.13a19.55,19.55,0,0,0-3.59-.06,1.26,1.26,0,0,1-1.47-.52,6.08,6.08,0,0,0,1-3.2A5.75,5.75,0,0,0,20.88,13c-1.11-1-3-.31-4.29-.64-.92.26-2-.11-2.94.32a2.69,2.69,0,0,0-.58,2.69A22.43,22.43,0,0,0,12.94,18c.18,2.37,0,4.74.07,7.11,0,1,.07,2.41.06,3.45a8.8,8.8,0,0,0,0,1.54,6.08,6.08,0,0,0-.13,1.6,36.13,36.13,0,0,1,0,5,1.81,1.81,0,0,1,0,1.15c0,.44.2,1,.13,1.47a3.46,3.46,0,0,0,0,1.6A11.37,11.37,0,0,0,13,42.82a2,2,0,0,0,2.56,2c.47-.15,1.07.14,1.53,0,.85-.14,1.82.24,2.63-.06,1-.05,1.39-.53,1.41-1.54a7.1,7.1,0,0,0-.32-3.45c-.15-.93-1.26-2,.38-2.18a21.6,21.6,0,0,0,3,0,7.91,7.91,0,0,0,2.49,0,11.21,11.21,0,0,1,1.54.06c.74,0,2.36-.23,1.66,1.09a26.38,26.38,0,0,0-.7,3c.26,1.14-.08,2.54,0,3.71.16,1.36.28,3.2-.58,4.35-.35.31-.92.62-1.08,1.09a3.28,3.28,0,0,0-.84.64c-.58.49-1,1.32-1.85,1.41a1.68,1.68,0,0,0-1,.19,18.18,18.18,0,0,1-2.11-.19.92.92,0,0,1-1,0l-.57.19c-.24-.24-.75-.15-1-.07-.89-.33-2,0-2.94.07a13.55,13.55,0,0,1-1.67-.19.92.92,0,0,1-1,0c-.95-.08-2.61.12-3.52,0C9.49,53.26,8.84,52.59,8.34,52.36Z" transform="translate(-4.94 -4.29)"/><path class="cls-1" d="M44.37,50.89A2.66,2.66,0,0,1,44.75,52c.35.6,0,1-.64.9a2.93,2.93,0,0,1-1.47,0,1.32,1.32,0,0,1-1,0c-1.39.3-3.16,0-4.54,0-.7,0-1.65.39-2-.45.41-.39.39-1.1.51-1.6A2.88,2.88,0,0,0,36.18,49c-.27-1.4.13-2.82-.13-4.22a7,7,0,0,0,.06-2.5,5.06,5.06,0,0,0-.06-2.05,1.49,1.49,0,0,0,0-1c.21-.58-.09-1.49,0-2.11a9,9,0,0,0,0-1.47,1.66,1.66,0,0,0,.06-1c.12-1,0-2.2,0-3.2.08-3.06-.09-6.18,0-9.22.14-1.32-.18-2.65.07-4a16.1,16.1,0,0,1-.07-2.69c.16-.62-.15-1.36,0-2a21.83,21.83,0,0,1,.07-2.56,6,6,0,0,1,0-2.11,6.93,6.93,0,0,0-.45-2.5c-.1-.84-1-1.41-.13-2.17a32.76,32.76,0,0,0,4.54,0,20.2,20.2,0,0,0,4,0c1.09.16.74.92.44,1.66A6.77,6.77,0,0,0,44.18,8c-.18,1.14,0,2.4-.07,3.58s.12,2.44-.06,3.65a2.6,2.6,0,0,1,0,1.41,5.36,5.36,0,0,1,0,1.6c.2,1-.07,2.14.13,3.07a14.57,14.57,0,0,1-.13,1.6,2.39,2.39,0,0,1,0,1.54,2.38,2.38,0,0,1,0,1.47,2.91,2.91,0,0,1,0,1,8.78,8.78,0,0,1,0,2.56,7.1,7.1,0,0,1,0,2.56c.06,1.17.05,2.41,0,3.59a1.66,1.66,0,0,1,0,1.08c.22.45-.07,1,.06,1.48a32.88,32.88,0,0,0,.07,4.09c.1.75-.25,1.79,0,2.5a18.61,18.61,0,0,0,0,4.22A4,4,0,0,0,44.37,50.89Z" transform="translate(-4.94 -4.29)"/><path class="cls-1" d="M59.53,51c-.06.76.93,1.5.13,2.11-.5.15-1.12-.16-1.6.07-1.12-.15-2.33.08-3.45-.07a5.87,5.87,0,0,0-1.92.07,4.47,4.47,0,0,0-2.18,0c-.48-.58-.1-1.05.06-1.67A9,9,0,0,0,51.21,49a2.24,2.24,0,0,1,0-1.47c-.26-.82,0-1.74-.12-2.56.27-1.53-.06-3.14.12-4.68-.11-2.38,0-4.79-.12-7.16a2.39,2.39,0,0,0,0-1.54,2.53,2.53,0,0,0,0-1.54,2.92,2.92,0,0,0,.12-1c-.23-1.36.07-2.74-.06-4.1-.11-2.32.05-4.81-.06-7.16a16.47,16.47,0,0,0,0-3.14,10.8,10.8,0,0,0,0-2,2.82,2.82,0,0,0,0-1.47,24.12,24.12,0,0,1,.12-2.56,8.31,8.31,0,0,0-.64-2.62c-.16-.43-.59-1.16.07-1.54a21.86,21.86,0,0,0,2.56,0,6.72,6.72,0,0,0,2.49,0,19,19,0,0,1,2,.13c.54-.29,1.22.07,1.66.38a16.19,16.19,0,0,0,1.28,3.27c.31.43.28,1.13.51,1.6a24.76,24.76,0,0,1,1,2.36c.57,1,.72,2.24,1.28,3.2a6.07,6.07,0,0,1,.77,2.05,8.27,8.27,0,0,1,.89,2.37,25,25,0,0,1,1,2.37,9.26,9.26,0,0,1,1,2.43,2.6,2.6,0,0,1,.39,1,6.18,6.18,0,0,1,.7,1.41c.46.89.61,2,1.15,2.81A6.17,6.17,0,0,0,70,31.56a1.26,1.26,0,0,0,.45,1c.12.23.13,1,.44,1,.08-1.33-.06-2.77.13-4.09a5.78,5.78,0,0,1-.06-2A7.18,7.18,0,0,1,71,25.29c-.16-3.13,0-6.39,0-9.6-.27-1.64.25-3.5-.13-5.12A9.06,9.06,0,0,0,70,4.87c.34-.83,1.28-.52,2-.45s1.36,0,2,0a20.46,20.46,0,0,1,2.49-.12c.51-.06,1.16.19,1.66.06.72.2,1.49-.28,1.86.58-.32.22-.46,1.11-.51,1.47a5.74,5.74,0,0,0-.32,3.07c-.26,1.71.06,3.51-.07,5.18A2.12,2.12,0,0,1,79,15.75a4,4,0,0,1,0,1.92,13.74,13.74,0,0,1,0,3.14,2.92,2.92,0,0,0,.13,1,3.21,3.21,0,0,0,0,1.54,4.44,4.44,0,0,0,0,2.05,1.43,1.43,0,0,0,0,1,11.66,11.66,0,0,0,0,3,2.34,2.34,0,0,1-.13,1,2.12,2.12,0,0,1,.06,1.09,7.73,7.73,0,0,1-.06,2c.12.84.05,2.82.13,3.65a23.17,23.17,0,0,1-.13,3,15.28,15.28,0,0,1,0,2.62,2.12,2.12,0,0,1,.06,1.09c.2,1.05-.32,2.48.07,3.52a2.73,2.73,0,0,0,0,1.6c-.2.29,0,1.1,0,1.41.33.75,1.08,2,.38,2.62-.41-.14-1,.13-1.41.07a5.6,5.6,0,0,0-2,0c-1.5,0-3.28-.11-4.74-.07a3.16,3.16,0,0,1-1.09-1.85,1.83,1.83,0,0,1-.38-1.09,35.16,35.16,0,0,1-2.11-5.18c-.19-.63-.69-1.24-.9-1.86a17.31,17.31,0,0,0-.64-2c-.64-.92-.85-2.26-1.41-3.26,0-.84-.78-1.55-.83-2.37a47.51,47.51,0,0,1-2-4.8,20.15,20.15,0,0,1-1.28-3.39,5.28,5.28,0,0,1-.77-1.79c-.39-.36-.35-1.06-.64-1.48h-.19a3.34,3.34,0,0,1,0,1.54c-.07.78.14,1.73.12,2.5a3,3,0,0,0,0,1.66c0,.64-.1,1.4-.12,2.05.17.51-.05,1.48.13,2.05a2.62,2.62,0,0,1-.13,1,2.2,2.2,0,0,1,.06,1.08,17.38,17.38,0,0,1,0,2.5c-.16.59.17,1.33,0,1.92a6.16,6.16,0,0,1-.06,1.66,4.2,4.2,0,0,1,.06,1.54c.17.83-.15,1.73.06,2.56-.27.57.07,1.32,0,1.92A6.53,6.53,0,0,0,59.53,51Z" transform="translate(-4.94 -4.29)"/><path class="cls-1" d="M108.43,53c-2.08.24-4.15-.15-6.21.13-1.74,0-3.78-.31-5.5,0a13.05,13.05,0,0,0-2.5,0,17.49,17.49,0,0,0-3.07,0,9.73,9.73,0,0,0-3.14,0,8.79,8.79,0,0,0-2.56-.07l-.32-.64a.92.92,0,0,0,.32-.89,7.29,7.29,0,0,1,.45-1A43.88,43.88,0,0,0,86,45.38c0-1.71,0-3.52.06-5.24.09-.63-.17-1.44-.12-2,.22-.45-.06-1,0-1.47a13.22,13.22,0,0,0,0-3.08c.32-.87,0-2.1,0-3,.21-.58-.09-1.5,0-2.12a1.49,1.49,0,0,0,0-1,1.7,1.7,0,0,0,0-1.09c.28-.93-.07-2,.12-3a3.17,3.17,0,0,1,0-1.47c0-.24-.18-.78-.06-1,.17-1.71-.22-3.51.06-5.19A14.83,14.83,0,0,1,86,13.13c.14-.47-.11-1.07-.06-1.54A7.1,7.1,0,0,0,86,9.48a8.64,8.64,0,0,0-.13-2.43,14.86,14.86,0,0,0-.77-2c.2-.24.38-.85.84-.64s1.17,0,1.66.13a1.43,1.43,0,0,1,1,0,1.46,1.46,0,0,1,1,0,35.26,35.26,0,0,1,4.48-.07,2,2,0,0,1,1,.07,10.19,10.19,0,0,1,2-.13,14.58,14.58,0,0,0,2.56.06,31,31,0,0,0,4.09-.06c1.33.07,2.71.06,4,0,1.85-.05,1.71.92,1.86,2.43a33.32,33.32,0,0,1,.77,4.48c.64,1.87.23,2.32-1.6,1.54a15.35,15.35,0,0,0-2.95-.45,27,27,0,0,1-3.71,0c-.91.3-2-.17-2.94.06a24.93,24.93,0,0,0-2.75.07c-.65,0-1.67-.16-2,.51a7.57,7.57,0,0,0-.39,3.9,19.89,19.89,0,0,0,.07,2.44c0,2.65-.92,5.45,2.94,5a5.94,5.94,0,0,0,3.07-.32c.72-.27,2.13-1.09,2.12.25.17,1.16-.18,2.43.06,3.59-.35,1.16.21,2.49-.13,3.65,0,.85.37,2.28-1,1.66A6.67,6.67,0,0,0,97,32.58c-1.19-.13-2.64-.23-2.88,1.28-.32.7.25,1.75-.13,2.44,0,1.67.09,3.44,0,5.12a6.18,6.18,0,0,1,0,1.92c.33,1.46,1.79,1.65,3.07,1.47a32.87,32.87,0,0,0,5.25,0,5.27,5.27,0,0,0,2,0c.82.17,1.75,0,2.56.13a13.12,13.12,0,0,1,2.12-.52c.53-.22,1.37-.53,1.79,0a7.07,7.07,0,0,0-.39,2.5c-.27.82-.28,1.72-.51,2.56a2.42,2.42,0,0,1-.19,1.09,1.16,1.16,0,0,1-.13.89,4.54,4.54,0,0,0-.13,1.16C109.21,52.79,108.77,53.31,108.43,53Z" transform="translate(-4.94 -4.29)"/><path class="cls-1" d="M123.53,51c.22.67.86,1.52.32,2.18a1.43,1.43,0,0,0-1,0c-.57-.21-1.39.07-2,0-2-.13-4.17-.11-6.21-.07a1.39,1.39,0,0,1,.06-1.47c.09-.65.63-1.47.58-2.17a1.46,1.46,0,0,1-.07-.9,10.54,10.54,0,0,1,.07-2.11,2.82,2.82,0,0,1,0-1.47c.1-1.16-.25-2.53,0-3.65-.21-1.17.18-2.44-.13-3.59a2.57,2.57,0,0,0,0-1.6,62.86,62.86,0,0,0,0-8.12,13.94,13.94,0,0,0,0-3.65c.37-1-.09-2.54.13-3.59a18.64,18.64,0,0,1-.07-3.58c.21-.65-.14-1.41,0-2.05a32.78,32.78,0,0,0-.06-4c0-1.7.27-3.61-.38-5.24-1.17-1.87.62-1.71,2-1.48a8.28,8.28,0,0,1,2.11,0,5.06,5.06,0,0,1,1.86,0c1.26-.17,2.79.09,4-.12a2.46,2.46,0,0,0,1.54,0c.81.22,1.85,0,2.68.12a5.33,5.33,0,0,1,2,0,33.87,33.87,0,0,1,4,0c1,.25,1.69,1.23,2.43,1.86A14.55,14.55,0,0,0,139.28,8l.32,1a1.28,1.28,0,0,0,0,1,10,10,0,0,0,0,2.05,23.12,23.12,0,0,0,0,4.16c-.22.49.08,1.1-.13,1.6.21.45-.07,1,.06,1.47.18,1.19-.11,2.47.07,3.65a10.43,10.43,0,0,0-.07,2.56c.19.61-.21,1.39.07,2-.12,1.07.21,2.5-.32,3.52-.84.61-1.44,1.68-2.37,2.18a3.6,3.6,0,0,1-1.86,1.53c-1.39-.23-2.85.17-4.22,0a17.55,17.55,0,0,1-2.05-.06c-.53.2-1.32-.08-2,.13a8,8,0,0,0-2.81.19,2.27,2.27,0,0,0-.58,2.24,11.16,11.16,0,0,0,0,1.53,5.33,5.33,0,0,0,0,2c0,.94-.11,2.28,0,3.2a15.31,15.31,0,0,0,0,3.58C123,48.53,123.46,49.84,123.53,51Zm.26-24.7c1.38.59,3.08.26,4.54.38a7.77,7.77,0,0,0,2.37-.45c.52-.17.54-1.09.71-1.53a29,29,0,0,1,0-5.19c-.21-.42,0-1-.13-1.47a9.87,9.87,0,0,1,.13-1.53,12.34,12.34,0,0,1-.07-2.5c-.07-.88-.74-1.22-1.53-1.34a7.1,7.1,0,0,0-2.56,0,4.44,4.44,0,0,0-2,0c-.92-.39-1.79.57-2,1.4a34.53,34.53,0,0,0,.07,4.55,1.43,1.43,0,0,0,0,1c-.23.46.1,1.07-.13,1.54a1.15,1.15,0,0,1,0,.89c.23.46-.08,1.07.06,1.54C123.3,24.46,123,25.54,123.79,26.25Z" transform="translate(-4.94 -4.29)"/><path class="cls-1" d="M169.49,45.06a9.24,9.24,0,0,1-.2,1.48A3,3,0,0,1,169,48a4.79,4.79,0,0,1-.39,2,1.28,1.28,0,0,1-.13,1c.13,2.26-.92,2.28-2.81,2.11a8.21,8.21,0,0,1-2-.06,11.49,11.49,0,0,1-2.63.06,19.1,19.1,0,0,1-2.5-.06c-.92.16-2,0-2.94.13-1-.08-2.06-.09-3.07-.13-.5.21-1.15-.08-1.66.13-1.37-.14-3.17,0-4.48-.13A3,3,0,0,1,145,53a.89.89,0,0,1-1-.45,10.45,10.45,0,0,0,.9-5.63c.22-.47-.06-1,.06-1.47a21.83,21.83,0,0,1,.07-2.56,57,57,0,0,1,0-6.79,1.28,1.28,0,0,1,0-1c-.08-.61,0-1.36-.07-2,.1-.82,0-2.27,0-3.2-.14-.62.25-1.37-.06-2,0-.61.24-1.53,0-2.12a40.38,40.38,0,0,0,0-5.5,17.1,17.1,0,0,0,0-3.2,12.15,12.15,0,0,0,0-3.46c-.09-.6.22-1.54,0-2.11A31.68,31.68,0,0,0,145,8.07c-.26-.76-.5-1.85-.71-2.62a1.17,1.17,0,0,1,0-1.09c1.88.23,3.81,0,5.7.13,1.14.22,4.85-.87,3.46,1.47a7.71,7.71,0,0,0-.39,3.65,4.27,4.27,0,0,0,0,2,1.7,1.7,0,0,0,0,1.09c0,.5-.2,1.11,0,1.6a36.2,36.2,0,0,0,0,4.54,10.57,10.57,0,0,1-.13,1.6,2,2,0,0,1,.13.9c-.24.85.17,1.8-.13,2.62a9.36,9.36,0,0,1,.07,2.18c-.12,1.83.07,3.77.06,5.63-.22.41,0,1-.06,1.47a6.13,6.13,0,0,0,.06,2.05c.06.63-.31,1.38,0,2a8.78,8.78,0,0,0-.06,2.56c.14.46-.14,1.07,0,1.53a14.49,14.49,0,0,1-.07,2.11,1.65,1.65,0,0,0,1.48,1.41c2.92,0,5.85,0,8.76,0a22,22,0,0,1,2.69.07c1-.38,2.34-.34,3.27-.9A.82.82,0,0,1,169.49,45.06Z" transform="translate(-4.94 -4.29)"/><path class="cls-1" d="M196.49,53c-2.08.24-4.14-.15-6.21.13-1.74,0-3.78-.31-5.5,0a13.05,13.05,0,0,0-2.5,0,17.49,17.49,0,0,0-3.07,0,9.67,9.67,0,0,0-3.13,0,8.79,8.79,0,0,0-2.56-.07l-.32-.64a1,1,0,0,0,.32-.89,7.25,7.25,0,0,1,.44-1,41.79,41.79,0,0,0,.13-5.12c0-1.71,0-3.52.07-5.24.08-.63-.17-1.44-.13-2,.22-.45-.06-1,0-1.47a13.22,13.22,0,0,0,0-3.08c.32-.87,0-2.1,0-3,.21-.58-.09-1.5,0-2.12a1.49,1.49,0,0,0,0-1,1.7,1.7,0,0,0,0-1.09c.28-.93-.07-2,.13-3,0-.44-.22-1,0-1.47,0-.24-.19-.78-.07-1,.17-1.71-.21-3.51.07-5.19a13.85,13.85,0,0,1-.07-2.49c.15-.47-.11-1.07-.06-1.54a7.1,7.1,0,0,0,.06-2.11A8.64,8.64,0,0,0,174,7.05a16.23,16.23,0,0,0-.76-2c.2-.24.37-.85.83-.64s1.17,0,1.66.13a1.46,1.46,0,0,1,1,0,1.43,1.43,0,0,1,1,0,35.26,35.26,0,0,1,4.48-.07,2,2,0,0,1,1,.07,10.19,10.19,0,0,1,2-.13,14.58,14.58,0,0,0,2.56.06,31,31,0,0,0,4.09-.06c1.33.07,2.71.06,4,0,1.84-.05,1.7.92,1.85,2.43a31.81,31.81,0,0,1,.77,4.48c.65,1.87.23,2.32-1.6,1.54a15.37,15.37,0,0,0-2.94-.45,27.17,27.17,0,0,1-3.72,0c-.91.3-2-.17-2.94.06a25,25,0,0,0-2.75.07c-.65,0-1.66-.16-2.05.51-.61,1.11-.45,2.67-.38,3.9a18.08,18.08,0,0,0,.06,2.44c0,2.65-.92,5.45,2.94,5a6,6,0,0,0,3.08-.32c.71-.27,2.13-1.09,2.11.25.17,1.16-.18,2.43.06,3.59-.34,1.16.22,2.49-.13,3.65,0,.85.37,2.28-1,1.66a6.67,6.67,0,0,0-4.16-.58c-1.18-.13-2.64-.23-2.88,1.28-.32.7.26,1.75-.13,2.44,0,1.67.09,3.44,0,5.12a5.89,5.89,0,0,1,0,1.92c.34,1.46,1.79,1.65,3.07,1.47a32.87,32.87,0,0,0,5.25,0,5.33,5.33,0,0,0,2,0c.82.17,1.74,0,2.56.13a12.75,12.75,0,0,1,2.11-.52c.53-.22,1.37-.53,1.79,0a7.07,7.07,0,0,0-.38,2.5c-.28.82-.29,1.72-.52,2.56a2.42,2.42,0,0,1-.19,1.09,1.12,1.12,0,0,1-.13.89,4.13,4.13,0,0,0-.12,1.16C197.27,52.79,196.83,53.31,196.49,53Z" transform="translate(-4.94 -4.29)"/><path class="cls-1" d="M230.35,52.23a.93.93,0,0,1,.06.9,3.33,3.33,0,0,0-1.6,0,11.54,11.54,0,0,0-3.52,0,1.1,1.1,0,0,0-.89,0,1.46,1.46,0,0,0-1,0,15.14,15.14,0,0,0-3,0c-.79,0-1-.6-.44-1.15a1.64,1.64,0,0,0,.12-1.92,14.34,14.34,0,0,0-1.34-3.2c-.07-.5-.48-1-.45-1.54a3,3,0,0,1-.51-.9c-.11-.41-.44-.92-.51-1.34a1.31,1.31,0,0,0-.45-.9,2.47,2.47,0,0,0-.58-1.47,5.27,5.27,0,0,0-.57-1.6c-.34.58-.33,1.43-.83,1.92-.05.41-.47,1.22-.71,2A44.79,44.79,0,0,0,212,48.26a5.25,5.25,0,0,0-1,3.33c.25.48.76.93.38,1.47-2.15,0-4.49.11-6.65-.06-.81,0-2.12.1-2.95.06a1.17,1.17,0,0,1-1.28-.38A14.36,14.36,0,0,0,204,46.6c.24-1,1-1.81,1.09-2.82a4.63,4.63,0,0,0,.77-1.92c.76-1.48,1.29-3.18,2-4.67a41.76,41.76,0,0,1,1.92-4.8,2.71,2.71,0,0,1,.57-1.34,4.8,4.8,0,0,1,.71-1.86c.48-.5-.11-1.17-.39-1.66a18.51,18.51,0,0,0-1.15-3,32.73,32.73,0,0,0-1.47-3.65,2.46,2.46,0,0,0-.45-1,2.48,2.48,0,0,0-.25-1,2,2,0,0,1-.39-1,2.07,2.07,0,0,1-.51-.9c0-.51-.42-1-.58-1.47-.16-1-.89-1.85-1.08-2.82-.43-.9-.8-1.92-1.16-2.88A1.44,1.44,0,0,1,203.4,9,1.8,1.8,0,0,1,203,8c-.62-1-1.52-1.87-2.05-2.88a.47.47,0,0,1-.25-.64,20.12,20.12,0,0,1,3.64,0c1.12-.28,2.42.15,3.52-.13a9,9,0,0,0,2.88,0c1.18,0,.54.94.32,1.6a4.21,4.21,0,0,0,.39,1.92,8.07,8.07,0,0,0,.89,2.3,1.27,1.27,0,0,0,.45.9,5.39,5.39,0,0,0,1,2.37c.35,1.69,1.47,3.16,1.79,4.86a14.44,14.44,0,0,1,1-2.49c.42-1,.81-2.17,1.21-3.2a3.32,3.32,0,0,0,.58-1.54c.69-.53.6-1.59,1-2.3A4.42,4.42,0,0,0,220.17,6c-.41-.46-.82-1.08-.38-1.66.64.15,1.42-.09,2.05.13.44-.22,1,0,1.47,0a14.45,14.45,0,0,1,2-.07c.52.15,1.17-.15,1.67.07a19.7,19.7,0,0,1,2.43,0c.37-.16,1.09-.17,1.28.25a22.88,22.88,0,0,1-2,2.37c-.27,1-.88,1.88-1.15,2.82a6.62,6.62,0,0,0-1,2.3,1.51,1.51,0,0,0-.38,1c-.1.48-.57.89-.71,1.35a2,2,0,0,1-.25,1c-.57,1.59-1.38,3.14-1.92,4.73a17.64,17.64,0,0,0-1,2.5A56,56,0,0,0,220,28.42c-.3.65.64,1.34.58,2a16.36,16.36,0,0,1,1,2.43,2.18,2.18,0,0,1,.51.9c.42,1.3,1,2.51,1.41,3.78a3.17,3.17,0,0,1,.57,1.47,26.58,26.58,0,0,1,1.15,2.88,4.8,4.8,0,0,0,.52.83,11.51,11.51,0,0,0,.44,1.41c.52.87.73,2,1.28,2.81a12.07,12.07,0,0,0,1.41,3.27A14.35,14.35,0,0,0,230.35,52.23Z" transform="translate(-4.94 -4.29)"/></svg>